<svg _ngcontent-afw-c60="" xmlns="http://www.w3.org/2000/svg" xml:space="preserve" width="1.5in" height="0.5in"
    version="1.1" viewBox="0 0 5087.51 1250.77" xmlns:xlink="http://www.w3.org/1999/xlink"
    xmlns:xodm="http://www.corel.com/coreldraw/odm/2003"
    style="shape-rendering: geometricPrecision; text-rendering: geometricPrecision; image-rendering: optimizeQuality; fill-rule: evenodd; clip-rule: evenodd;">
    <g _ngcontent-afw-c60="" id="Layer_x0020_1">
        <metadata _ngcontent-afw-c60="" id="CorelCorpID_0Corel-Layer"></metadata>
        <path _ngcontent-afw-c60="" id="_6WW"
            d="M4458.38 505.96l-267.26 0 0 -75.43 377.33 0 0 69.07 -262.47 265.99 582.65 0 6.55 0 83.48 0c-42.22,78.59 -96.11,151.36 -160.54,215.8 -172.48,172.48 -404.6,269.38 -648.61,269.38l-3415.22 0 0 -78.25 3415.22 0c223.25,0 435.51,-88.65 593.31,-246.44 26.84,-26.85 51.69,-55.28 74.44,-85.07l-645.02 0 0.75 -67.89 265.39 -267.17zm629.13 -505.96l-4169.52 0c-244.01,0 -476.13,96.92 -648.61,269.38 -172.45,172.46 -269.38,404.58 -269.38,648.61l0 332.78 637.41 0 0 -78.25 -0 0 0 -621.56 169.69 229.58 170.32 -229.65 0 290.12 79.72 0 0 -410.48 -80.81 0 -169.2 227.99 -167.98 -227.99 -81.45 0 0 741.99 -479.42 0 0 -254.53c0,-223.26 88.65,-435.52 246.43,-593.31 157.8,-157.77 370.05,-246.43 593.3,-246.43l4091.26 0 0 254.54c0,114.15 -23.18,225.44 -66.94,328.04l84.4 0c39.82,-103.57 60.8,-214.54 60.8,-328.04l0 -332.8zm-3510.54 765.59l431.94 0 0 75.41 -431.94 0 0 -75.41zm0 -335.07l997.78 0 215.97 0 215.98 0 0 75.43 -176.13 0 0 335.05 -79.72 0 0 -335.05 -176.11 0 -997.78 0 0 -75.43zm0 167.54l420.57 0 0 75.41 -420.57 0 0 -75.41zm1989.45 -168.13l79.72 0 0 411.7 -79.72 0 0 -411.7z"
            class="fil0"></path>
    </g>
</svg>