<?xml version="1.0" encoding="UTF-8"?>
<!-- Generated by Pixelmator Pro 3.5.7 -->
<svg width="3189" height="709" viewBox="0 0 3189 709" xmlns="http://www.w3.org/2000/svg">
    <g id="Kreis-Kopie">
        <path id="Pfad" fill="#000000" stroke="none" d="M 350.023254 41.298096 C 345.212585 41.604309 341.057892 42.435486 339.133667 43.441711 C 338.652588 43.704102 337.95282 43.922852 337.602966 43.922852 C 336.378448 43.922852 332.35495 46.678833 329.599762 49.391174 C 326.49472 52.453369 322.033875 58.884094 319.759735 63.652405 C 316.56723 70.214294 315.911224 71.789185 315.911224 72.664124 C 315.911224 73.145325 315.605103 73.801514 315.255219 74.107727 C 314.905365 74.414001 314.599243 74.982666 314.599243 75.376404 C 314.599243 75.813843 314.293091 76.513733 313.943237 76.994995 C 313.593353 77.432434 313.287231 78.263672 313.287231 78.744812 C 313.287231 79.269836 312.981079 79.926025 312.631226 80.232239 C 312.281372 80.538452 311.97522 81.107117 311.97522 81.457092 C 311.97522 81.85083 311.406708 83.338196 310.70694 84.825562 C 309.220032 87.844055 307.995514 90.731323 307.164581 92.918579 C 306.814697 93.749817 306.289886 94.843445 305.983734 95.324707 C 305.677643 95.805847 305.415222 96.462036 305.415222 96.812012 C 305.415222 97.380737 302.222717 104.380066 301.04187 106.47998 C 300.823212 106.829895 299.817352 108.710938 298.811493 110.635803 C 296.974701 114.222961 293.694702 118.335144 289.933624 121.791077 C 288.752808 122.884766 287.484558 124.109619 287.090942 124.503418 C 286.741089 124.940857 286.26001 125.290771 286.085083 125.290771 C 285.910156 125.290771 284.947998 125.859497 283.898407 126.515686 C 282.848785 127.215637 280.443481 128.396729 278.519196 129.184204 C 276.59494 129.971619 274.626923 130.802856 274.145874 131.021484 C 273.664795 131.240295 272.702698 131.59021 271.959198 131.809021 C 271.259491 132.027771 269.553864 132.640137 268.241852 133.1651 C 266.929871 133.690125 265.355469 134.215027 264.743195 134.346313 C 264.13092 134.477478 263.256256 134.871216 262.775208 135.177429 C 262.294128 135.527405 261.506927 135.789917 260.982117 135.789917 C 260.457336 135.789917 259.451477 136.052368 258.751709 136.402344 C 256.258911 137.627258 254.203476 138.414673 253.372543 138.414673 C 252.935196 138.414673 252.016785 138.677124 251.317062 139.0271 C 249.086685 140.16449 244.931976 140.776917 238.503189 140.951965 C 232.293045 141.083191 228.488251 140.645752 224.289825 139.202087 C 223.590103 138.983398 222.278107 138.589661 221.447174 138.414673 C 219.522903 137.977234 217.205032 137.145996 215.674377 136.402344 C 215.062103 136.052368 214.09996 135.789917 213.57518 135.789917 C 213.050385 135.789917 212.088242 135.527405 211.475967 135.177429 C 210.819962 134.871216 208.720749 133.996338 206.796509 133.252563 C 199.711685 130.584106 192.714371 127.784363 190.046646 126.559448 C 188.559677 125.859497 187.160233 125.290771 186.941574 125.290771 C 186.722885 125.290771 185.935669 124.984558 185.19223 124.634583 C 184.448746 124.284668 183.224228 123.67218 182.480743 123.322205 C 181.737289 122.972229 180.818878 122.666016 180.425293 122.666016 C 180.031662 122.666016 179.288223 122.359802 178.850876 122.009827 C 178.369812 121.659851 177.451431 121.353638 176.839157 121.353638 C 176.226868 121.353638 175.308502 121.047424 174.827423 120.697449 C 174.390076 120.347473 173.471664 120.04126 172.815659 120.04126 C 172.159668 120.04126 170.235428 119.82251 168.573563 119.516296 C 163.063141 118.553833 156.153275 120.26001 150.55542 123.89093 C 145.263641 127.346863 133.324478 139.070862 128.470062 145.632751 C 123.571915 152.238464 123.528191 152.325928 122.566055 156.350647 C 121.647636 159.981567 121.516464 164.399902 122.216194 167.06842 C 122.478607 168.030823 122.828468 169.693176 123.047119 170.786865 C 123.222054 171.880493 123.878052 173.936523 124.490334 175.380249 C 125.102608 176.823792 126.502052 180.279785 127.639122 183.035767 C 128.776199 185.791748 130.263123 189.291504 130.962845 190.77887 C 131.662613 192.309937 132.231125 193.7099 132.231125 193.928589 C 132.231125 194.147339 132.537262 194.541016 132.887131 194.847229 C 133.236984 195.153503 133.543121 195.940857 133.543121 196.597107 C 133.543121 197.296997 133.805542 198.390717 134.155411 199.090637 C 135.248718 201.19043 136.16713 203.46524 136.16713 204.121429 C 136.16713 204.427673 136.473267 205.083862 136.823135 205.521362 C 137.172989 206.002533 137.479126 206.702454 137.479126 207.052429 C 137.479126 207.402405 138.047638 209.196045 138.747406 210.989594 C 140.540482 215.67041 140.934067 216.895325 142.071136 221.094971 C 142.639648 223.151031 143.295654 225.382111 143.55806 226.0383 C 144.301544 227.919403 144.170349 241.655731 143.426849 243.711761 C 143.120712 244.630402 142.508484 246.642761 142.071136 248.217621 C 141.677551 249.79248 141.065277 251.629822 140.715408 252.286011 C 140.365555 252.985931 140.103134 253.904633 140.103134 254.342102 C 140.103134 254.779541 139.49086 256.441895 138.791138 257.973022 C 138.0914 259.547882 137.479126 261.210266 137.479126 261.691437 C 137.479126 262.172638 137.172989 262.785095 136.823135 263.091339 C 136.473267 263.397552 136.16713 264.097504 136.16713 264.709961 C 136.16713 265.278625 135.598618 266.940979 134.855133 268.428375 C 134.155411 269.871979 133.543121 271.490601 133.543121 272.059326 C 133.543121 272.584259 133.236984 273.28418 132.887131 273.590424 C 132.537262 273.896637 132.231125 274.465332 132.187408 274.85907 C 132.187408 275.252777 131.400192 276.915131 130.438049 278.621246 C 129.519638 280.2836 128.557541 282.120941 128.29512 282.645874 C 127.639122 284.220764 121.0354 290.870148 117.842842 293.232483 C 115.306328 295.113556 108.396461 298.83197 104.460457 300.494324 C 103.760696 300.800568 101.792694 301.675476 100.087112 302.462921 C 95.801247 304.47522 94.576691 305.000183 93.308449 305.350189 C 92.215103 305.61264 90.728172 306.268829 84.867889 308.98111 C 83.249756 309.724762 81.806587 310.337219 81.587891 310.337219 C 81.194305 310.337219 75.552681 312.655762 73.847092 313.53067 C 73.147369 313.880676 71.747887 314.536865 70.785744 314.974304 C 69.823608 315.368042 68.730301 315.893005 68.38044 316.111725 C 68.030579 316.286713 67.418297 316.592926 67.068436 316.724182 C 66.718575 316.855438 66.1063 317.161652 65.756439 317.380371 C 65.406578 317.599091 64.794296 317.905304 64.444435 318.03656 C 64.094574 318.167816 63.482296 318.47403 63.132435 318.692749 C 62.782574 318.911469 62.170296 319.217712 61.820435 319.39267 C 61.470573 319.523926 60.464668 320.223846 59.590015 320.923828 C 58.715363 321.580017 57.796947 322.148712 57.534569 322.148712 C 56.834808 322.148712 51.149498 328.448151 50.231079 330.285522 C 49.750011 331.204163 49.181496 332.254089 48.919079 332.604065 C 48.350563 333.39151 47.607079 336.234985 46.470009 341.834503 C 45.6828 345.859161 45.595356 347.565247 45.726563 356.489471 C 45.901493 366.244873 45.945217 366.682312 47.257217 370.92569 C 48.962803 376.569 50.362289 379.149994 53.292427 382.168488 C 55.741501 384.70575 59.283878 387.768005 59.764946 387.768005 C 59.896156 387.768005 60.770809 388.292938 61.689224 388.905396 C 62.607601 389.517853 63.744671 390.217804 64.225739 390.436523 C 64.70681 390.655273 65.406578 391.005249 65.756439 391.223938 C 67.549507 392.273834 72.185234 394.329926 72.666298 394.329926 C 73.016159 394.329926 73.803368 394.592438 74.415611 394.942383 C 76.514816 396.079803 81.325516 398.26709 81.762817 398.26709 C 81.981514 398.310822 82.943611 398.660797 83.905754 399.141998 C 84.867889 399.623199 85.786308 399.973175 85.961243 400.016968 C 86.179893 400.016968 88.235382 400.935608 90.553246 402.029266 C 94.707901 403.997833 98.031624 405.397705 100.305763 406.097687 C 101.442833 406.491364 108.221527 409.641083 112.900978 411.959625 C 116.268463 413.709503 119.63591 416.159271 123.265778 419.658966 C 125.714844 421.977539 129.607132 426.702118 129.607132 427.314575 C 129.607132 427.445801 130.219406 428.53949 130.919128 429.764343 C 131.662613 430.989227 132.231125 432.257874 132.231125 432.564117 C 132.231125 432.914063 132.537262 433.395294 132.887131 433.701508 C 133.236984 434.007751 133.543121 434.620209 133.543121 435.10141 C 133.543121 435.582581 133.805542 436.501282 134.155411 437.113739 C 134.505264 437.769928 135.117538 439.169769 135.511124 440.263458 C 135.904709 441.357117 136.516983 442.756958 136.866852 443.413177 C 137.216721 444.025635 137.479126 444.856812 137.479126 445.206757 C 137.479126 445.819214 139.403412 451.287476 140.715408 454.480957 C 141.021545 455.180908 141.896194 457.761932 142.683411 460.167969 C 144.039139 464.542603 144.039139 464.586304 144.039139 474.122986 C 144.039139 483.572205 144.039139 483.747162 142.683411 487.903046 C 141.939926 490.221619 141.065277 492.802612 140.759125 493.633789 C 140.452988 494.464966 140.059402 495.68988 139.884476 496.389832 C 139.753265 497.046021 139.140991 498.664612 138.572479 499.97699 C 137.960205 501.245667 137.479126 502.733032 137.479126 503.214233 C 137.479126 503.695435 137.304199 504.220398 137.041779 504.351624 C 136.823135 504.482849 136.42955 505.445251 136.123413 506.451416 C 135.860992 507.457642 135.16127 509.251221 134.592712 510.38858 C 134.0242 511.569763 133.543121 512.969604 133.543121 513.53833 C 133.543121 514.063293 133.236984 514.763184 132.887131 515.069458 C 132.537262 515.375671 132.231125 515.944336 132.231125 516.338135 C 132.231125 516.731812 131.618851 518.087891 130.919128 519.40033 C 130.175644 520.712708 129.607132 522.068848 129.607132 522.418823 C 129.607132 522.725037 129.344711 523.556213 128.994843 524.16864 C 128.251404 525.568542 125.846054 531.561768 125.496193 532.786682 C 125.364983 533.267883 124.883911 534.755249 124.446609 536.067627 C 123.965538 537.423767 123.265778 540.223511 122.828468 542.323364 C 122.17247 545.560547 122.17247 546.566711 122.609772 549.104004 C 123.265778 552.647461 125.364983 557.896973 127.158058 560.521729 C 127.901543 561.571655 128.951126 563.059082 129.43219 563.802734 C 131.356476 566.64624 144.695129 579.857544 148.543655 582.788574 C 153.704208 586.594482 156.896729 588.563049 158.165009 588.563049 C 158.689789 588.563049 159.695663 588.869263 160.395416 589.219238 C 161.270081 589.656738 162.975662 589.875427 166.124496 589.875427 C 169.273285 589.875427 170.978867 589.656738 171.853561 589.219238 C 172.553284 588.869263 173.734085 588.563049 174.521286 588.563049 C 175.26474 588.563049 176.008224 588.388062 176.139435 588.169373 C 176.27063 587.994385 177.713806 587.381958 179.33194 586.856934 C 182.611954 585.763306 183.574081 585.369568 187.816223 583.3573 C 189.39064 582.613586 191.008743 582.00116 191.358643 582.00116 C 191.664749 582.00116 192.145813 581.826172 192.364502 581.651184 C 192.626877 581.476196 194.769821 580.557495 197.175171 579.638855 C 199.580505 578.720154 202.073303 577.713989 202.729309 577.364014 C 203.341583 577.014099 204.085022 576.751587 204.347443 576.751587 C 204.65358 576.751587 206.140518 576.13916 207.671173 575.439209 C 209.201828 574.695496 210.863693 574.126831 211.344757 574.126831 C 211.825821 574.126831 212.3069 573.951843 212.43811 573.733154 C 212.569305 573.514343 214.09996 572.901978 215.849319 572.333252 C 217.598663 571.808289 219.304245 571.1521 219.610382 570.889587 C 219.916519 570.670898 221.009827 570.320923 222.015686 570.145935 C 223.021591 569.970947 225.251968 569.445923 226.913834 568.964783 C 232.336761 567.433655 237.978394 566.952454 242.570404 567.56488 C 246.94371 568.133545 250.61734 568.964783 252.016785 569.708435 C 252.497849 569.970947 253.41626 570.189697 254.115982 570.189697 C 254.815704 570.189697 255.734131 570.452148 256.21521 570.758362 C 256.696259 571.064575 258.533051 571.764526 260.28241 572.333252 C 262.031708 572.901978 263.562408 573.514343 263.693604 573.733154 C 263.824799 573.951843 264.349609 574.126831 264.87442 574.126831 C 265.442932 574.126831 266.273865 574.433044 266.754913 574.739258 C 267.279724 575.089233 268.94162 575.832886 270.47226 576.35791 C 272.00293 576.882813 273.489868 577.451538 273.708557 577.626526 C 273.970917 577.801514 274.758148 578.107727 275.545349 578.238953 C 279.481354 579.113892 286.26001 582.9198 290.720795 586.856934 C 292.732574 588.606812 297.062164 593.76886 297.674438 595.125 C 297.849365 595.474976 299.030151 597.749756 300.298431 600.155823 C 304.715515 608.555054 305.327728 609.82373 306.727234 613.279663 C 307.470703 615.204529 308.345367 617.348083 308.695221 618.091736 C 309.045074 618.791687 309.919739 620.716553 310.619507 622.291382 C 311.362946 623.866211 311.97522 625.441101 311.97522 625.791077 C 311.97522 626.184814 312.281372 626.841003 312.631226 627.322205 C 312.981079 627.759644 313.287231 628.459595 313.287231 628.853333 C 313.287231 629.247009 313.899506 630.646912 314.599243 632.003052 C 315.342712 633.359192 315.911224 634.934021 315.911224 635.546509 C 315.911224 636.115173 316.217377 636.815125 316.56723 637.121338 C 316.917084 637.427612 317.223236 637.952515 317.223236 638.258728 C 317.223236 638.871216 319.016296 642.895874 320.853088 646.526794 C 322.777374 650.28894 326.757111 655.800964 329.337372 658.338257 C 332.223755 661.094238 336.772034 664.112732 338.652588 664.50647 C 339.264832 664.637695 340.358185 664.987671 341.057892 665.337646 C 342.763519 666.168823 350.373108 667 355.927246 667 C 362.487244 667 372.327271 666.037598 373.376862 665.293884 C 373.85791 664.943909 374.688843 664.681458 375.213684 664.681458 C 376.350708 664.681458 380.724091 662.406677 383.041962 660.569336 C 387.371552 657.157104 391.613678 651.295105 395.505981 643.333313 C 397.25528 639.789856 398.917145 636.377686 399.266998 635.721497 C 399.616852 635.109009 399.879272 634.365356 399.879272 634.059143 C 399.879272 633.490417 400.622711 631.696838 402.503265 627.715942 C 403.90274 624.74115 405.17099 621.897644 406.001984 619.622864 C 406.745422 617.698059 407.663849 615.554443 409.850464 610.873657 C 410.76886 608.817566 411.731018 606.674011 411.905975 606.105286 C 412.561981 604.049194 416.104309 597.574768 418.028595 594.950012 C 421.483582 590.269165 421.920868 589.700439 423.801422 587.90686 C 426.075562 585.719543 426.119293 585.675842 429.836609 583.226013 C 433.510254 580.820007 439.370483 578.020264 444.705994 576.051636 C 445.930481 575.614197 447.286285 575.001709 447.767303 574.695496 C 448.248322 574.389282 449.035583 574.126831 449.560333 574.126831 C 450.085175 574.126831 450.74118 573.864319 451.003571 573.514343 C 451.265991 573.164429 452.053162 572.814453 452.709167 572.683167 C 453.977448 572.464478 456.470276 571.633301 457.694763 571.020874 C 458.132141 570.802124 459.181732 570.452148 460.100159 570.233398 C 461.018494 570.014648 462.811584 569.445923 464.079865 568.964783 C 471.295868 566.20874 484.153473 566.252502 491.71933 569.096008 C 492.812653 569.489746 494.562012 570.014648 495.655334 570.233398 C 496.704926 570.452148 497.798309 570.845825 498.016907 571.064575 C 498.279327 571.327087 498.716644 571.502075 499.066498 571.502075 C 499.678772 571.502075 501.90921 572.376953 504.095886 573.514343 C 504.795624 573.864319 505.757751 574.126831 506.23877 574.126831 C 506.719879 574.126831 507.638306 574.433044 508.250519 574.739258 C 508.906494 575.089233 510.218506 575.701721 511.180634 576.095398 C 512.142761 576.489136 513.542297 577.101563 514.242065 577.407776 C 514.985474 577.757751 516.035095 578.151489 516.647339 578.282715 C 517.259644 578.457703 518.440369 578.895142 519.271362 579.245117 C 521.939087 580.470032 529.942322 583.838501 531.298035 584.27594 C 532.041504 584.538391 532.916199 584.932129 533.266052 585.107117 C 533.615906 585.325867 534.140686 585.588318 534.359375 585.675842 C 534.621765 585.719543 536.371094 586.332031 538.295349 586.98822 C 540.219666 587.68811 542.974792 588.388062 544.41803 588.563049 C 545.861206 588.738037 547.960388 589.175537 549.097473 589.48175 C 550.934326 589.962952 551.459106 589.962952 553.252197 589.306763 C 554.432922 588.913025 555.963623 588.563049 556.750793 588.563049 C 557.494324 588.563049 558.237793 588.388062 558.368958 588.169373 C 558.500183 587.950623 559.156189 587.644409 559.812195 587.469421 C 561.561523 587.031921 565.80365 584.05719 569.171082 580.951233 C 570.745544 579.507629 572.93219 577.539063 573.981812 576.664063 C 576.387085 574.695496 578.136414 572.98938 579.79834 571.020874 C 581.372681 569.227234 586.445801 563.365234 587.845276 561.877869 C 590.250549 559.209351 593.618103 550.460144 593.618103 546.829224 C 593.618103 543.985657 591.956238 536.330139 590.644226 533.005371 C 590.425537 532.392944 589.856995 531.036804 589.463379 529.943176 C 589.026062 528.849487 588.413818 527.31842 588.063965 526.574707 C 587.757813 525.787231 587.18927 524.518677 586.839355 523.731201 C 586.533264 522.943787 585.658569 521.018921 584.958801 519.444092 C 584.259094 517.869202 583.034546 515.025696 582.247375 513.100891 C 581.460205 511.176025 580.541809 508.988708 580.235657 508.201294 C 579.885803 507.457642 579.623352 506.626465 579.623352 506.320221 C 579.623352 506.013977 579.360962 505.270294 579.011108 504.657867 C 578.398804 503.476685 575.99353 497.221008 575.556213 495.602356 C 575.424988 495.121155 574.812683 493.327576 574.200378 491.665222 C 573.588196 489.959137 573.107117 488.20929 573.063354 487.684326 C 573.063354 487.203125 572.713501 486.109436 572.319946 485.278259 C 571.226563 483.134705 571.1828 464.411346 572.276184 462.22406 C 572.6698 461.480347 573.107117 460.211731 573.282043 459.424286 C 573.763123 457.149475 574.900208 453.64978 575.293823 453.212341 C 575.51239 452.949829 575.687378 452.424896 575.687378 451.987396 C 575.687378 451.549988 576.562073 448.925201 577.655396 446.212921 C 578.748657 443.456909 579.623352 441.007141 579.623352 440.744659 C 579.623352 440.482178 579.929504 439.563507 580.32312 438.644836 C 580.716675 437.726196 581.285217 436.370026 581.59137 435.670105 C 583.996704 429.764343 586.883118 425.171021 591.212708 420.227692 C 592.480957 418.784058 600.265503 412.703339 600.834106 412.703339 C 600.965271 412.703339 601.752441 412.222137 602.539673 411.60968 C 603.326843 410.997253 604.114075 410.516052 604.332703 410.516052 C 604.726379 410.516052 607.262817 409.378632 611.242554 407.410065 C 612.598389 406.710083 614.041565 406.141418 614.347656 406.141418 C 614.69751 406.141418 615.528442 405.878906 616.22821 405.528961 C 616.884216 405.178986 618.239929 404.566528 619.202087 404.172821 C 620.164246 403.779144 621.56366 403.166687 622.263428 402.860443 C 626.418091 400.935608 628.604736 400.016968 628.867126 400.016968 C 629.042114 400.016968 629.960449 399.623199 630.96637 399.185791 C 632.846863 398.310822 637.963684 395.948547 640.194092 394.986115 C 642.118408 394.111206 650.034119 390.392792 651.564758 389.605347 C 657.293823 386.674347 664.116272 380.287384 666.127991 375.956543 C 666.87146 374.381653 667.658569 372.238098 667.964722 371.14447 C 668.227173 370.050781 668.752014 368.082214 669.145569 366.769836 C 669.582886 365.107483 669.889038 361.520294 670.020264 355.177063 C 670.195129 347.040314 670.107727 345.552948 669.320435 342.053223 C 667.308716 333.041504 666.08429 330.416718 662.06073 326.304565 C 657.73114 321.8862 655.238403 320.267639 648.066101 316.942902 C 646.404236 316.155457 644.698608 315.32428 644.348694 315.10556 C 643.99884 314.886841 643.386597 314.580627 643.036743 314.449371 C 642.68689 314.274384 640.587708 313.311951 638.3573 312.262085 C 636.170593 311.212128 634.246399 310.337219 634.071411 310.337219 C 633.940247 310.337219 632.628235 309.768555 631.097534 309.068573 C 624.537537 305.962585 622.438354 305.087677 621.651123 305.087677 C 621.213806 305.087677 620.601563 304.781464 620.29541 304.431488 C 619.989258 304.081512 619.377014 303.775299 618.939697 303.775299 C 618.458557 303.775299 616.97168 303.206604 615.572205 302.506653 C 614.216431 301.806732 612.3797 300.931824 611.548706 300.581848 C 607.56897 298.83197 601.927368 295.988495 600.003113 294.719849 C 598.866089 293.932404 597.816406 293.276215 597.685242 293.276215 C 597.379089 293.276215 592.218567 289.295319 591.212708 288.289154 C 589.069824 286.101837 583.559387 278.227509 583.559387 277.3526 C 583.559387 277.002625 583.253235 276.521423 582.903381 276.215179 C 582.553528 275.908966 582.247375 275.384003 582.247375 275.077789 C 582.247375 274.727814 581.678833 273.240448 580.979126 271.709351 C 580.279358 270.221954 579.404663 268.209625 579.05481 267.247192 C 578.704956 266.28479 577.78656 263.922516 577.043091 261.953918 C 576.299683 260.029083 575.687378 258.104279 575.687378 257.710541 C 575.687378 257.316833 575.51239 256.923096 575.293823 256.791901 C 575.075073 256.660645 574.46283 255.129517 573.938049 253.379669 C 573.413269 251.629822 572.713501 249.529999 572.363647 248.742584 C 572.013794 247.95517 571.751404 246.861481 571.751404 246.336548 C 571.751404 245.811584 571.488953 244.630402 571.139099 243.624268 C 570.176941 240.95578 569.389771 234.612549 569.739624 232.206512 C 570.439392 226.694489 570.789246 224.682159 571.270325 223.80722 C 571.532654 223.32605 571.751404 222.363617 571.751404 221.75116 C 571.751404 221.094971 572.013794 219.957611 572.363647 219.213867 C 572.713501 218.426483 573.369507 216.545349 573.850525 214.97049 C 574.681519 212.433258 576.780701 206.439972 578.573792 201.62796 C 578.923645 200.665527 579.404663 199.265594 579.667114 198.565643 C 579.885803 197.821991 580.541809 196.203369 581.154053 194.934753 C 581.766357 193.7099 582.247375 192.397522 582.247375 192.091309 C 582.247375 191.785034 582.553528 191.128845 582.903381 190.647583 C 583.253235 190.210144 583.559387 189.510254 583.559387 189.160278 C 583.559387 188.810303 584.171631 187.322876 584.871399 185.879333 C 585.571106 184.435669 586.183411 183.079529 586.183411 182.860779 C 586.183411 182.64209 586.445801 182.117126 586.795654 181.767151 C 587.101807 181.373413 587.845276 179.886047 588.413818 178.442444 C 588.938538 176.99884 589.594543 175.642639 589.769531 175.42395 C 589.944397 175.161438 590.119385 174.636475 590.119385 174.155334 C 590.119385 173.717896 590.513 172.492981 590.99408 171.443054 C 592.087402 169.080688 593.005798 165.537354 593.399414 162.343811 C 593.749268 159.675354 592.918335 155.169434 591.475098 151.93219 C 589.594543 147.645081 580.32312 136.971069 573.282043 131.065308 C 571.139099 129.227966 569.171082 127.521851 568.908691 127.215637 C 567.246826 125.290771 560.205811 120.828674 556.88208 119.603821 C 553.164673 118.247681 544.461792 118.160156 541.925232 119.428772 C 541.269226 119.778748 540.175903 120.04126 539.476196 120.04126 C 538.776367 120.04126 537.945496 120.347473 537.639343 120.697449 C 537.333191 121.047424 536.589783 121.353638 536.02124 121.353638 C 535.408936 121.353638 534.403076 121.61615 533.790771 121.966125 C 531.516663 123.147217 529.286316 123.978394 528.499084 123.978394 C 528.061768 123.978394 527.449463 124.284668 527.143372 124.634583 C 526.837219 124.984558 526.312378 125.290771 526.006348 125.290771 C 525.656372 125.290771 524.169495 125.859497 522.682495 126.60321 C 521.151917 127.303101 518.571594 128.396729 516.866028 129.052917 C 515.204163 129.665405 513.017456 130.540344 512.055359 130.977783 C 510.437195 131.721497 509.5625 132.027771 504.751892 133.865051 C 503.702301 134.258728 502.215332 134.827454 501.428162 135.177429 C 500.64093 135.527405 499.635071 135.789917 499.241486 135.789917 C 498.804169 135.789917 498.060638 136.09613 497.57962 136.446106 C 497.142303 136.796021 496.31134 137.102295 495.830292 137.102295 C 495.305481 137.102295 494.168365 137.408508 493.337463 137.758484 C 492.462769 138.108459 491.150787 138.414673 490.407318 138.414673 C 489.663879 138.414673 488.439331 138.764648 487.652161 139.158325 C 486.471313 139.814514 484.85318 139.902039 476.850006 139.902039 C 469.546478 139.902039 467.184906 139.770752 466.354004 139.289612 C 465.74173 138.983398 464.47345 138.545837 463.511322 138.370911 C 461.543304 138.020935 459.269165 137.277283 457.476135 136.402344 C 456.776337 136.052368 455.770477 135.789917 455.245728 135.789917 C 454.720886 135.789917 454.06488 135.571106 453.80249 135.308716 C 453.540131 135.046204 452.665436 134.696228 451.878265 134.477478 C 451.047302 134.258728 449.298004 133.690125 447.985992 133.1651 C 446.674011 132.640137 445.012146 132.071472 444.268616 131.852722 C 441.644623 131.152771 434.16626 128.046753 433.160339 127.303101 C 432.504333 126.778198 431.017426 125.903259 430.055298 125.46582 C 429.136871 125.02832 424.326263 121.353638 423.23288 120.303772 C 422.008331 119.078857 417.416321 112.910583 415.754456 110.198364 C 414.311279 107.923523 411.031281 101.142883 409.719299 97.730713 C 409.281982 96.637085 408.451019 94.668457 407.882446 93.356079 C 407.270264 92.043701 406.395569 90.075134 405.958252 88.981445 C 405.477142 87.887817 404.777435 86.444214 404.471283 85.788025 C 404.121429 85.088013 403.815277 84.213135 403.815277 83.775635 C 403.815277 83.381897 403.509155 82.638245 403.159271 82.157104 C 402.809418 81.719543 402.503265 81.063354 402.503265 80.757141 C 402.503265 80.450928 401.934723 79.007324 401.191284 77.519897 C 400.491547 76.076294 399.879272 74.632751 399.879272 74.326477 C 399.879272 73.364075 394.281403 61.027649 392.313416 57.702942 C 391.438721 56.259338 387.983826 51.665955 386.365692 49.828613 C 379.98056 42.566772 369.353394 40.073181 350.023254 41.298096 Z M 369.703247 209.152283 C 372.239777 209.414703 374.994995 209.808502 375.825958 210.070892 C 378.274994 210.814636 381.511261 211.514587 384.485138 211.908264 C 386.015839 212.083313 387.502716 212.47699 387.765137 212.739502 C 388.027557 213.001892 388.5961 213.220673 388.989685 213.220673 C 389.864288 213.220673 399.004578 216.064178 401.06012 216.982788 C 401.803558 217.332855 402.63446 217.595245 402.896851 217.595245 C 403.159271 217.595245 403.727844 217.770264 404.165131 217.989044 C 404.558716 218.207703 405.783295 218.732697 406.876587 219.170135 C 407.969971 219.563843 410.025421 220.438782 411.468597 221.094971 C 412.911835 221.75116 414.398743 222.407379 414.748596 222.582397 C 415.09845 222.757324 416.585419 223.544739 418.028595 224.332214 C 419.471832 225.16333 422.095856 226.563293 423.801422 227.438141 C 425.550751 228.356842 427.212616 229.363007 427.475006 229.66922 C 427.737427 230.019196 428.174744 230.281677 428.437164 230.281677 C 429.049438 230.281677 434.341156 233.737671 439.589172 237.499817 C 441.907013 239.205902 444.443573 240.95578 445.143311 241.393219 C 445.886749 241.87439 446.93634 242.661835 447.548615 243.23056 C 448.160889 243.755493 450.303864 245.636627 452.359314 247.386444 C 459.356628 253.467163 462.811584 257.316833 471.689453 268.822083 C 474.707031 272.715515 479.342773 279.233673 479.780151 280.152344 C 479.955048 280.502319 480.611053 281.595978 481.267059 282.558411 C 481.923035 283.520813 482.885193 285.095673 483.366302 286.058075 C 483.891052 287.020508 484.503326 288.114166 484.765747 288.464142 C 485.33429 289.426575 489.970032 299.313202 489.970032 299.663147 C 489.970032 299.838135 490.363617 300.756836 490.800903 301.76297 C 491.238312 302.769135 491.98175 304.431488 492.375336 305.525146 C 492.768921 306.618774 493.381195 308.149933 493.731049 308.937317 C 494.080902 309.724762 494.343323 310.687195 494.343323 311.03717 C 494.343323 311.430908 494.605743 312.262085 494.955597 312.874481 C 495.52417 313.96817 496.005188 315.674286 496.967346 319.523926 C 497.142303 320.355103 497.535889 321.755005 497.842041 322.586182 C 498.148163 323.417358 498.541748 324.685974 498.804169 325.429657 C 499.066498 326.129608 499.416351 327.879456 499.591339 329.235565 C 499.766296 330.591705 500.11618 332.647797 500.37851 333.828918 C 501.90921 341.003326 501.996643 341.878235 501.996643 354.958344 C 501.996643 367.819733 501.952911 368.519684 500.815887 374.162933 C 500.11618 377.356415 499.591339 380.374908 499.591339 380.812378 C 499.591339 381.249817 499.328918 382.255981 498.979065 383.043396 C 498.672913 383.830841 498.060638 385.668182 497.623322 387.111816 C 497.229736 388.55545 496.617462 390.392792 496.267609 391.180206 C 495.917755 391.967651 495.655334 393.148804 495.655334 393.848724 C 495.655334 394.548645 495.349182 395.33609 494.999329 395.642334 C 494.649475 395.948547 494.343323 396.561005 494.343323 397.042206 C 494.343323 397.917114 493.51236 400.016968 492.331604 402.291748 C 491.98175 402.904175 491.71933 403.822876 491.71933 404.260345 C 491.71933 404.741516 491.413177 405.485229 491.063324 405.966431 C 490.71347 406.4039 490.407318 407.103821 490.407318 407.453796 C 490.363617 408.153717 488.002014 412.96582 484.547058 419.483978 C 481.135895 425.870941 479.692627 428.189484 473.570007 436.982483 C 468.671875 444.069366 452.490479 461.261627 446.805176 465.461273 C 445.230743 466.598694 443.61261 467.86731 443.219025 468.261047 C 442.169434 469.310913 433.903839 474.779175 429.617981 477.272766 C 424.020111 480.509949 404.340118 490.134094 403.290436 490.134094 C 403.071838 490.134094 402.240875 490.440338 401.497406 490.790314 C 399.616852 491.665222 393.931549 493.590057 391.788574 494.071289 C 390.826447 494.289978 388.464844 494.98996 386.540588 495.558655 C 384.616302 496.171082 382.298431 496.696045 381.380096 496.696045 C 380.46167 496.696045 379.19342 496.958557 378.537415 497.308502 C 376.919281 498.139679 369.178467 498.620911 357.457916 498.620911 C 345.824829 498.620911 338.565094 498.183411 336.465881 497.352234 C 335.634979 497.046021 333.841888 496.652313 332.529907 496.521057 C 331.217896 496.433533 328.637665 495.821136 326.844574 495.208679 C 325.051514 494.596222 323.214722 494.071289 322.777374 494.071289 C 322.296295 494.071289 321.334167 493.808777 320.590729 493.458801 C 319.803497 493.108856 318.0979 492.496399 316.785889 492.05896 C 315.473877 491.62149 313.986938 491.009033 313.50589 490.702789 C 313.024811 490.396606 312.325104 490.134094 311.931519 490.134094 C 311.056824 490.134094 304.671753 487.378113 303.972015 486.678162 C 303.709625 486.41568 303.184814 486.19696 302.791229 486.19696 C 302.004028 486.19696 292.032806 481.166138 290.939484 480.247498 C 290.58963 479.897522 289.933624 479.63501 289.540009 479.63501 C 289.146423 479.63501 288.752808 479.460022 288.621643 479.241333 C 288.490417 479.022583 286.52243 477.753967 284.335724 476.397797 C 282.105347 475.041687 279.874939 473.685547 279.39386 473.379333 C 278.912781 473.07309 276.988556 471.71698 275.151733 470.360809 C 273.27121 468.960938 271.565613 467.823547 271.390686 467.823547 C 271.215729 467.823547 270.341064 467.167358 269.4664 466.379913 C 268.591705 465.636261 265.442932 462.92395 262.469055 460.386719 C 257.439728 456.099609 255.078125 453.64978 248.999191 446.431671 C 245.631699 442.450745 241.651978 437.113739 239.29039 433.482788 C 238.197052 431.776672 236.972534 430.114319 236.578903 429.808105 C 236.185318 429.501862 235.879181 429.064423 235.879181 428.889435 C 235.879181 428.714478 235.09198 427.358307 234.086121 425.870941 C 231.593323 422.152527 226.651459 412.74707 224.727173 408.109985 C 223.721313 405.703918 222.671692 403.297913 222.059448 402.11673 C 221.709595 401.504333 221.447174 400.585632 221.447174 400.104431 C 221.447174 399.623199 221.184769 398.660797 220.8349 397.960876 C 220.266388 396.779724 218.385834 390.961456 216.942657 386.018158 C 215.324524 380.331177 214.012527 373.638 213.57518 368.738403 C 213.312759 365.851135 212.919174 362.701416 212.700516 361.739014 C 212.088242 359.070496 212.17569 350.058777 212.919174 345.815399 C 213.269028 343.759338 213.706375 340.084625 213.96875 337.678619 C 214.187454 335.272552 214.755966 331.729095 215.280762 329.804291 C 215.761826 327.879456 216.155457 325.823364 216.199173 325.210938 C 216.199173 324.59848 216.50531 323.548615 216.855179 322.848633 C 217.205032 322.192444 217.511169 321.142548 217.511169 320.573822 C 217.511169 320.048889 218.123459 318.03656 218.823181 316.155457 C 219.566666 314.318115 220.135178 312.349548 220.135178 311.868347 C 220.135178 311.343384 220.441315 310.555939 220.791183 310.074738 C 221.141037 309.637299 221.447174 308.806122 221.447174 308.237396 C 221.447174 307.712463 222.059448 306.137573 222.759186 304.781464 C 223.50267 303.425323 224.071182 301.894226 224.071182 301.369232 C 224.071182 300.844299 224.377319 300.144379 224.727173 299.838135 C 225.077042 299.531921 225.383179 299.094421 225.383179 298.875732 C 225.383179 298.525757 227.70105 293.757416 231.855698 285.620605 C 233.080246 283.2146 239.946396 272.977966 243.357605 268.472137 C 246.331467 264.578705 247.730911 262.87262 250.748535 259.591644 C 251.098404 259.197906 252.803986 257.316833 254.465851 255.43573 C 258.358124 251.061127 258.401855 250.973633 261.025848 248.87381 C 262.250397 247.911377 264.480774 245.899078 266.055206 244.411713 C 269.029053 241.612 270.209869 240.693298 278.081848 235.400024 C 282.848785 232.162781 285.604004 230.500427 289.889862 228.31311 C 291.945343 227.263214 292.513885 226.95697 294.39444 225.907074 C 295.225372 225.425842 300.648285 222.801056 303.884583 221.269989 C 305.1091 220.701294 307.864288 219.563843 310.007233 218.688965 C 312.193878 217.814026 314.249359 216.939056 314.642944 216.720398 C 315.036591 216.501617 316.129883 216.195404 317.004578 216.020447 C 317.922943 215.845428 319.191223 215.451721 319.803497 215.145508 C 320.415741 214.795532 321.377899 214.533051 321.90271 214.533051 C 322.427521 214.533051 322.952301 214.358032 323.083527 214.139343 C 323.214722 213.964325 324.176819 213.658112 325.182709 213.483154 C 326.188599 213.308136 327.281891 212.95816 327.631744 212.651947 C 327.981659 212.389435 329.381104 211.995758 330.736816 211.864532 C 333.404602 211.514587 336.684601 210.814636 339.089905 210.070892 C 339.920837 209.808502 342.807251 209.458527 345.518738 209.283508 C 348.230194 209.152283 350.591766 208.889801 350.766724 208.714783 C 351.160309 208.277344 363.449402 208.583588 369.703247 209.152283 Z"/>
        <path id="path1" fill="#000000" stroke="none" d="M 310.182159 264.228729 C 309.132568 265.322418 309.132568 265.497375 309.001373 274.465332 C 308.870148 283.389587 308.870148 283.564575 307.90802 283.827026 C 307.38324 283.958252 301.697876 284.089508 295.269073 284.089508 C 283.72348 284.089508 283.592285 284.089508 282.936279 285.051941 C 282.367737 285.883118 282.236572 287.76416 282.236572 296.688416 C 282.236572 303.206604 282.061615 307.668732 281.799225 308.193665 C 281.361877 308.98111 280.793335 309.024841 272.221619 309.024841 C 263.343719 309.024841 263.125061 309.068573 262.250397 309.987274 C 261.769348 310.555939 261.244537 311.343384 261.113342 311.780853 C 260.763489 312.743286 261.463196 314.624359 262.643982 315.893005 C 263.562408 316.855438 263.824799 316.89917 272.440277 316.89917 C 278.213074 316.89917 281.40564 317.074127 281.580566 317.380371 C 281.755493 317.599091 281.974152 319.786438 282.105347 322.148712 C 282.280273 325.342163 282.19281 326.698334 281.799225 327.179535 C 281.361877 327.704468 279.874939 327.835724 273.139984 327.835724 C 264.524536 327.835724 262.512787 328.185699 261.725616 329.760529 C 260.80719 331.641632 260.982117 333.085266 262.33786 334.572632 L 263.387482 335.710052 L 272.352783 335.710052 L 281.361877 335.710052 L 281.667999 336.891174 C 281.842926 337.591095 282.017853 340.390869 282.017853 343.146881 L 282.017853 348.177704 L 273.27121 348.396423 C 264.961853 348.615143 264.437073 348.658905 263.081329 349.66507 C 261.025848 351.108704 260.588531 352.508575 261.594421 354.477142 C 262.775208 356.795685 264.13092 357.101929 273.358704 357.101929 C 279.218933 357.14566 281.40564 357.276886 281.667999 357.670624 C 281.842926 357.976837 282.149078 362.657684 282.280273 368.082214 C 282.586426 378.012634 282.936279 380.987366 284.029633 382.387207 C 285.429077 384.268311 285.516571 384.268311 296.71228 384.268311 C 306.202423 384.268311 307.558167 384.355804 308.082947 385.011993 C 308.564026 385.536926 308.695221 387.549286 308.695221 393.498749 L 308.695221 401.329346 L 299.948578 410.078552 L 291.201874 418.827789 L 286.26001 418.827789 L 281.318146 418.827789 L 278.737854 416.990448 C 276.245056 415.284363 276.026428 415.196869 272.921356 415.196869 C 270.253632 415.196869 269.378937 415.371857 267.979492 416.246796 C 265.093079 417.996613 263.999725 419.440247 263.037628 422.721222 C 262.600281 424.208588 262.600281 425.258514 263.037628 427.752045 C 264.218414 434.620209 268.154419 438.95105 273.27121 438.95105 C 276.113861 438.95105 278.300568 437.988647 280.312286 435.801331 C 282.411499 433.52652 283.111206 432.301605 283.111206 430.770508 C 283.111206 430.026855 283.286133 428.889435 283.548553 428.276978 C 283.942139 427.139587 284.029633 427.139587 288.490417 427.139587 C 291.770416 427.139587 293.432281 426.9646 294.438141 426.439667 C 295.181641 426.045929 300.298431 421.277588 305.765076 415.765594 C 317.791748 403.69162 317.223236 404.82901 317.223236 393.848724 C 317.223236 389.649078 317.354431 385.799438 317.485657 385.230743 C 317.748016 384.312042 317.922943 384.268311 323.127228 384.268311 L 328.462738 384.268311 L 328.725098 387.85553 C 328.900024 389.867828 329.03125 395.817291 329.03125 401.110596 L 329.03125 410.778503 L 327.194458 412.703339 C 326.188599 413.796997 320.284576 419.790222 314.074432 426.089691 C 303.141083 437.157471 302.791229 437.551147 302.791229 439.257294 C 302.791229 441.619568 304.365631 443.106934 306.858429 443.106934 C 308.651489 443.106934 308.826447 442.931946 320.678162 431.076752 C 327.281891 424.471069 333.62323 417.909149 334.804047 416.509247 L 336.903229 413.971985 L 336.903229 400.498169 C 336.903229 393.061279 337.034454 386.368103 337.165649 385.624451 L 337.471771 384.268311 L 342.807251 384.268311 C 348.011536 384.268311 348.186462 384.312042 348.448822 385.230743 C 348.580048 385.799438 348.711243 389.430359 348.711243 393.280029 L 348.711243 400.366913 L 355.621124 406.885101 C 359.382172 410.516052 363.274475 414.103241 364.192841 414.934418 L 365.898468 416.421783 L 387.765137 416.640503 C 406.614258 416.815491 409.675568 416.946716 409.937988 417.515411 C 410.156586 417.865387 410.593964 418.959045 411.031281 419.921448 C 411.862244 421.933777 413.086731 423.421143 415.185974 424.952301 C 416.497986 425.870941 417.153992 426.002167 420.215302 425.958435 C 423.189148 425.958435 423.932587 425.783478 425.332123 424.864777 C 427.475006 423.377411 428.08728 422.764954 429.136871 420.752625 C 430.317719 418.521576 430.405151 413.053314 429.311859 409.859863 C 428.174744 406.710083 425.244598 403.866608 422.095856 402.904175 C 419.69046 402.160522 419.428131 402.160522 417.066467 402.904175 C 415.054718 403.516632 414.048859 404.172821 412.03714 406.228912 L 409.544312 408.766174 L 389.295837 408.766174 L 369.047272 408.722443 L 362.837128 402.510468 L 356.626984 396.298523 L 356.889404 390.261536 L 357.151764 384.268311 L 369.047272 384.268311 C 380.592865 384.268311 380.942719 384.224548 381.773682 383.34964 C 382.51712 382.518463 382.604584 381.468567 382.823273 372.06311 L 383.041962 361.739014 L 394.412567 361.607788 L 405.783295 361.520294 L 407.751282 363.401337 C 408.844604 364.407562 412.693146 367.950958 416.322998 371.231934 C 419.952881 374.512909 423.845154 378.100098 425.026001 379.149994 C 428.043579 381.949768 430.711304 382.299744 433.029144 380.199921 C 433.860138 379.412476 433.991302 378.887543 433.991302 375.781555 C 433.991302 371.100677 434.122467 371.319458 426.775299 364.801239 C 424.369995 362.657684 421.877167 360.426605 421.264862 359.814209 C 418.553436 357.14566 411.949707 351.196167 410.156586 349.883789 L 408.276123 348.396423 L 395.637146 348.308899 L 383.041962 348.177704 L 383.041962 344.459259 L 383.041962 340.740814 L 396.293152 340.609619 C 406.43927 340.522095 409.719299 340.653351 410.331573 341.047058 C 411.249969 341.703247 417.197693 346.996521 421.308594 350.80249 C 425.988129 355.177063 428.743286 357.670624 432.985443 361.43277 C 439.501709 367.251038 438.802002 364.407562 438.802002 385.711914 L 438.802002 404.129089 L 437.140137 406.097687 C 434.909729 408.766174 434.428619 410.997253 435.128326 415.765594 C 435.609436 419.177765 436.833984 421.715057 439.064331 423.902344 C 440.726288 425.477234 441.382263 425.827209 443.437714 426.089691 C 448.248322 426.658386 451.178467 425.433502 453.715027 421.715057 C 455.158295 419.615234 455.201996 419.527771 455.158295 415.153137 C 455.07077 410.078552 454.54599 408.547455 451.484619 405.047729 L 449.735321 403.035431 L 449.735321 382.168488 C 449.735321 362.657684 449.691589 361.170319 448.904327 359.682953 C 447.985992 357.845612 448.292145 358.151794 442.519318 352.989777 C 438.845703 349.708801 435.215851 346.384094 432.941711 344.196777 C 432.679291 343.934326 430.492615 342.00946 428.08728 339.865906 C 425.681976 337.722351 423.626465 335.88501 423.4953 335.753784 C 423.364136 335.622528 421.745972 334.047699 419.909149 332.341553 C 414.661163 327.441986 415.667023 327.660736 398.129974 327.398254 L 383.041962 327.179535 L 383.041962 324.335999 L 383.041962 321.492523 L 398.654724 321.273804 L 414.311279 321.055023 L 415.492126 319.83017 C 416.62915 318.736481 416.716583 318.342804 416.62915 315.674286 C 416.62915 314.055664 416.279297 311.999573 415.885712 311.124664 C 414.661163 308.281128 414.048859 308.149933 401.322449 308.149933 C 395.112305 308.149933 388.421143 308.018677 386.453125 307.843689 L 382.823273 307.581207 L 382.823273 299.881866 C 382.823273 291.176392 382.167267 286.801788 380.592865 285.139404 C 379.630707 284.089508 379.586975 284.089508 369.746979 284.089508 C 364.324036 284.089508 359.425903 283.958252 358.901123 283.827026 C 357.895264 283.564575 357.895264 283.433319 357.895264 277.046356 C 357.895264 269.959503 357.151764 265.891083 355.577393 264.053741 C 354.877655 263.310059 354.22168 263.091339 352.472321 263.091339 C 350.066986 263.091339 349.804596 263.222565 348.492584 264.797424 C 347.705383 265.716095 347.617889 266.634796 347.399261 274.85907 L 347.180603 283.870789 L 342.719757 283.870789 C 340.270721 283.870789 338.127747 283.695801 337.909119 283.520813 C 337.734161 283.302063 337.42804 279.452423 337.296814 274.902802 C 337.078186 267.509705 336.94696 266.547272 336.072327 265.14743 C 334.978973 263.353821 334.454163 263.091339 331.698975 263.091339 C 330.037109 263.091339 329.424835 263.310059 328.550171 264.228729 C 327.50058 265.322418 327.50058 265.497375 327.369385 274.465332 C 327.194458 283.345795 327.150726 283.564575 326.276031 283.827026 C 324.789093 284.220764 321.334167 284.13324 320.10965 283.652039 L 318.972565 283.2146 L 318.972565 277.177612 C 318.972565 268.209625 318.666443 265.934814 317.223236 264.359985 C 316.173645 263.266327 315.692566 263.091339 313.637085 263.091339 C 311.625366 263.091339 311.100586 263.266327 310.182159 264.228729 Z M 355.533661 309.199829 C 356.320831 309.812286 356.364594 310.643463 356.452057 332.297821 C 356.53952 346.121613 356.408325 355.002075 356.145905 355.395844 C 355.796051 355.964508 352.734741 356.052032 333.973114 356.183228 C 321.990173 356.270752 311.362946 356.183228 310.400818 356.052032 C 308.913879 355.833252 308.476563 355.570801 308.039215 354.564667 C 307.470703 353.121033 307.558167 310.074738 308.170441 309.112366 C 308.738953 308.281128 354.352844 308.324921 355.533661 309.199829 Z"/>
    </g>
    <g id="Triologic-Kopie">
        <path id="path2" fill="#000000" stroke="none" d="M 1059.341187 168.762085 L 1016.732117 169.173462 L 1014.182129 171.724182 C 1011.714417 174.192627 1011.632202 174.604065 1011.632202 181.186523 C 1011.549927 189.743774 1014.017639 197.889587 1017.390198 200.440308 C 1019.611145 202.085938 1021.256226 202.085938 1149.165894 202.497314 C 1237.592163 202.826447 1279.625488 203.237854 1281.681885 203.896118 C 1287.028687 205.459473 1293.362427 209.408966 1295.747925 212.700195 C 1297.639771 215.333191 1298.051025 216.731964 1298.051025 220.599182 C 1298.051025 229.732422 1293.280151 236.479462 1283.327026 241.416321 L 1277.898071 244.049316 L 1149.577148 244.131592 C 1053.336426 244.213867 1020.515991 244.460724 1018.294983 245.201263 C 1012.454773 247.093719 1011.796692 248.574799 1010.974121 261.822052 C 1009.65802 281.7341 1009.904785 332.172455 1011.385376 339.00177 C 1013.112854 347.147614 1014.922485 350.767975 1018.377258 352.413605 C 1022.243347 354.388367 1029.152954 354.306061 1033.019043 352.331329 C 1038.365723 349.616058 1038.447998 349.204651 1038.941528 318.102356 C 1039.435059 289.303955 1039.681885 287.246918 1043.136597 282.474609 C 1046.344604 278.031433 1042.972046 278.196014 1141.104736 278.196014 C 1225.500366 278.196014 1232.080933 278.27829 1235.864746 279.594788 C 1240.553467 281.322693 1244.995239 285.519012 1252.233887 295.06366 C 1254.948364 298.684021 1262.433716 306.994385 1268.767578 313.494629 C 1283.573853 328.634338 1282.175415 327.071014 1287.933472 334.640869 C 1294.843018 343.691803 1302.739746 350.932556 1307.592896 352.578156 C 1309.978394 353.40097 1314.173462 353.894653 1318.36853 353.894653 C 1329.062012 353.894653 1333.010254 351.426208 1330.953857 346.160248 C 1330.542603 344.926025 1330.131348 342.786713 1330.131348 341.387939 C 1330.131348 337.191589 1325.442627 330.279968 1314.091187 317.690948 C 1310.636353 313.82373 1307.181641 309.791962 1306.441284 308.640045 C 1304.549316 305.595612 1295.830078 294.899078 1290.976929 289.550812 C 1288.673706 287.000092 1286.535034 284.120239 1286.28833 283.132874 C 1285.712524 280.911285 1289.743042 276.138977 1292.951172 275.316162 C 1298.626831 273.999664 1308.579956 268.157715 1313.762207 263.220825 C 1319.437866 257.790253 1325.195923 250.220398 1325.195923 248.245667 C 1325.195923 247.587402 1325.524902 246.846893 1325.936157 246.517761 C 1326.347534 246.270905 1327.005493 244.872131 1327.252319 243.391083 C 1327.581299 241.99231 1328.403809 239.030182 1329.062012 236.973145 C 1331.118408 230.390656 1329.637695 212.947052 1326.347534 205.212616 C 1325.689453 203.813843 1325.195923 202.250519 1325.195923 201.67453 C 1325.195923 200.0289 1320.507202 191.307129 1317.299194 187.028503 C 1313.515381 181.927063 1305.454224 175.755981 1297.639771 172.053284 L 1291.881836 169.255737 L 1243.350098 168.67981 C 1190.129883 168.021545 1125.064575 168.021545 1059.341187 168.762085 Z"/>
        <path id="path3" fill="#000000" stroke="none" d="M 677.833313 169.338013 C 671.252747 170.160828 668.455994 177.483887 670.841431 187.933594 C 672.486572 195.503418 674.049438 198.876984 676.846191 200.687164 C 678.820374 202.003662 684.084839 202.085938 743.2276 202.57962 C 778.515869 202.826447 808.210632 203.32016 809.115479 203.649292 C 813.146057 205.13031 813.146057 204.22525 813.557312 274.904755 L 813.968628 341.141083 L 816.1073 346.077942 C 818.657288 352.249054 821.371765 353.812378 829.268433 353.894653 C 835.026428 353.894653 839.386047 352.578156 841.689209 350.027435 C 844.897278 346.489349 845.061768 343.280396 845.555298 274.822479 C 846.048828 209.902649 846.048828 208.4216 847.69397 206.611389 C 848.598816 205.624054 850.243958 204.389832 851.395569 203.813843 C 852.87616 203.237854 872.617859 202.826447 917.612427 202.497314 C 977.084229 202.085938 982.019653 202.003662 984.076111 200.604858 C 987.777649 198.21875 989.011536 194.845215 988.517944 188.18042 C 987.613159 176.990173 985.885742 171.724182 982.184204 169.831726 C 980.950317 169.173462 683.179993 168.67981 677.833313 169.338013 Z"/>
        <path id="path4" fill="#000000" stroke="none" d="M 1362.869507 169.502563 C 1359.085815 170.325439 1357.769653 171.312805 1355.959961 175.179993 C 1354.643799 178.059814 1354.561646 183.408142 1354.726196 258.283966 C 1354.80835 327.235565 1354.9729 338.754944 1356.042236 340.729675 C 1356.700317 342.046173 1357.276123 343.774078 1357.276123 344.596893 C 1357.276123 347.559021 1360.237427 351.755371 1363.116333 352.742706 C 1366.735718 354.059204 1377.429077 354.059204 1381.04834 352.742706 C 1382.858032 352.084473 1384.420898 350.685699 1385.407959 348.875519 C 1386.806396 346.160248 1386.888672 342.539856 1386.641846 263.796783 C 1386.39502 174.604065 1386.477417 176.167358 1381.870972 171.641907 C 1380.143555 169.914001 1378.909668 169.5849 1372.904907 169.255737 C 1369.038818 169.008911 1364.514648 169.173462 1362.869507 169.502563 Z"/>
        <path id="path5" fill="#000000" stroke="none" d="M 1454.75061 169.5849 C 1446.031372 170.901367 1435.584717 176.578735 1430.073486 182.914429 C 1424.644531 189.167786 1418.968872 200.76944 1418.968872 205.459473 C 1418.968872 206.446838 1418.393066 208.832977 1417.65271 210.807739 C 1416.583374 213.769867 1416.336548 220.352356 1416.007568 248.574799 C 1415.678589 282.474609 1416.336548 300.658752 1418.14624 307.81723 C 1420.531738 316.703583 1422.588135 322.545532 1424.973511 327.15329 C 1428.51062 333.982635 1440.026611 345.501984 1446.607178 348.793243 C 1457.382935 354.223785 1449.321655 353.976929 1580.768433 353.730103 L 1699.876465 353.483246 L 1705.223145 351.59079 C 1720.523071 346.160248 1727.185791 340.400543 1733.519653 327.15329 C 1739.853394 314.152863 1739.771118 314.646576 1739.771118 264.537323 C 1739.688843 224.548706 1739.524292 219.447235 1738.208252 212.782471 C 1736.39856 204.142975 1735.164795 200.522614 1731.463135 193.364136 C 1728.090576 186.781616 1717.973022 176.578735 1712.215088 173.781189 C 1709.994019 172.711548 1707.032837 171.23053 1705.634399 170.48999 C 1703.413574 169.255737 1692.144409 169.173462 1581.015137 169.091187 C 1513.811157 169.008911 1457.053833 169.255737 1454.75061 169.5849 Z M 1695.352417 203.731537 C 1700.28772 205.459473 1704.071533 208.503845 1705.79895 212.206512 C 1707.197388 215.004089 1707.279663 218.706726 1707.279663 258.448517 C 1707.279663 300.905579 1707.279663 301.728424 1705.469971 305.431061 C 1703.742554 309.298279 1698.6427 313.988312 1694.11853 315.963074 C 1692.802368 316.539032 1689.265381 317.773224 1686.304077 318.596039 C 1681.204102 320.077118 1676.350952 320.159393 1576.573242 320.159393 C 1461.413452 320.159393 1469.392334 320.488495 1457.794189 314.975677 C 1451.624878 312.01355 1448.828125 308.969147 1448.170044 304.279114 C 1447.92334 302.386658 1447.758789 282.145508 1447.92334 259.271332 C 1448.087769 225.782928 1448.41687 217.307953 1449.321655 215.662323 C 1451.789307 211.136871 1456.149048 206.693695 1459.850586 204.801208 L 1463.798828 202.908752 L 1571.966919 202.41507 C 1631.438721 202.168213 1682.766968 202.085938 1685.892822 202.168213 C 1689.10083 202.332764 1693.378174 202.991058 1695.352417 203.731537 Z"/>
        <path id="path6" fill="#000000" stroke="none" d="M 1775.881958 169.338013 C 1771.933594 169.749451 1769.794922 172.300171 1768.643433 177.648438 C 1767.573975 182.749878 1767.409546 312.01355 1768.478882 330.444519 C 1768.972412 339.00177 1769.630493 343.115845 1770.946533 346.571625 C 1773.990112 354.635193 1761.240234 353.894653 1900.419067 353.894653 C 2014.838501 353.894653 2022.488403 353.812378 2025.203003 352.413605 C 2030.878662 349.616058 2032.359253 342.375305 2029.397949 331.020508 C 2027.75293 324.767151 2026.848022 323.203796 2024.051392 321.558167 C 2022.735229 320.817657 1996.001587 320.488495 1914.567261 320.159393 C 1814.871704 319.747986 1806.646118 319.66571 1804.26062 318.349213 C 1802.862305 317.526398 1801.381592 316.292175 1800.970337 315.46936 C 1800.559082 314.646576 1800.06543 283.955688 1799.818726 247.340576 C 1799.407471 183.078979 1799.325195 180.528259 1797.762329 176.661072 C 1795.459106 170.983643 1793.320435 169.667175 1785.423828 169.255737 C 1781.804443 169.091187 1777.5271 169.091187 1775.881958 169.338013 Z"/>
        <path id="path7" fill="#000000" stroke="none" d="M 2087.306885 169.502563 C 2081.713379 170.243103 2070.937744 175.673645 2066.002441 180.281433 C 2061.725098 184.230896 2059.175049 187.851257 2055.473633 195.256592 C 2052.10083 202.003662 2051.525146 211.630554 2051.525146 259.682739 C 2051.525146 300.905579 2052.018799 311.026184 2054.486328 318.925171 C 2059.586182 335.052277 2073.734619 348.299561 2090.597168 352.660431 C 2097.342285 354.470642 2325.93457 354.470642 2332.843994 352.660431 C 2350.200195 348.217255 2359.495361 341.058807 2366.405029 326.741882 C 2371.504883 316.045349 2371.504883 316.456726 2371.504883 262.891724 C 2371.504883 209.162109 2371.340332 207.51651 2366.158203 196.243958 C 2361.798584 187.028503 2352.750244 177.566162 2343.208496 172.382446 L 2337.368164 169.173462 L 2214.394043 169.091187 C 2146.778809 169.008911 2089.610107 169.255737 2087.306885 169.502563 Z M 2326.839355 203.402435 C 2332.186035 204.636658 2337.039063 208.010162 2338.848877 211.71283 C 2341.480957 217.143402 2341.892334 223.890442 2341.974609 260.999237 C 2341.974609 292.842041 2341.810059 298.272614 2340.576172 301.728424 C 2338.108643 309.298279 2334.98291 312.836365 2327.908691 316.2099 C 2319.107178 320.323944 2324.86499 320.159393 2210.116699 320.159393 C 2114.698486 320.159393 2103.018066 319.994843 2099.892334 318.842896 C 2091.749023 315.880768 2089.610107 314.811127 2086.4021 312.260406 C 2080.068359 307.241272 2080.315186 308.969147 2080.315186 261.986603 L 2080.315186 220.187775 L 2082.289307 216.07373 C 2084.674805 210.890015 2090.843994 205.294891 2095.450439 204.060669 C 2097.342285 203.649292 2099.234375 203.073303 2099.645508 202.908752 C 2100.138916 202.744171 2150.480469 202.57962 2211.679443 202.57962 C 2291.633301 202.497314 2323.960449 202.744171 2326.839355 203.402435 Z"/>
        <path id="path8" fill="#000000" stroke="none" d="M 2473.914795 169.502563 C 2467.745605 169.831726 2462.480957 170.407654 2461.411865 170.983643 C 2460.424561 171.559631 2459.026367 172.053284 2458.286133 172.053284 C 2455.242432 172.053284 2438.215332 180.528259 2433.033203 184.642334 C 2427.110596 189.250061 2414.360596 202.250519 2410.165771 207.845612 C 2405.723633 213.769867 2404.983398 214.921814 2402.762695 219.776398 C 2399.472168 226.770264 2398.814209 228.415924 2397.333496 232.941376 C 2396.593262 235.40979 2395.44165 238.865601 2394.865967 240.593536 C 2393.056152 245.44809 2393.302979 265.031006 2395.277344 273.012299 C 2399.554443 290.538177 2403.256104 300.247345 2409.589844 310.532501 C 2413.044678 316.127625 2414.360596 317.773224 2421.270508 324.684845 C 2428.179932 331.596466 2429.413818 332.666138 2436.89917 337.602997 C 2448.086182 344.926025 2455.489258 348.381836 2463.550537 349.780609 C 2465.606934 350.109711 2470.29541 351.179382 2473.914795 352.166748 C 2480.41333 353.894653 2481.482422 353.894653 2592.694092 353.894653 C 2675.691162 353.894653 2705.715088 353.647827 2708.100586 352.907288 C 2715.092285 350.85025 2716.161865 344.679169 2716.161865 306.336151 C 2716.161865 276.63266 2715.256836 263.385406 2712.789063 255.733246 C 2710.568359 249.150757 2709.66333 247.916534 2705.879639 245.859497 C 2702.753906 244.296173 2701.026367 244.131592 2677.0896 243.884766 C 2663.105957 243.637909 2645.585205 243.80249 2638.26416 244.213867 C 2625.843506 244.872131 2624.77417 245.118988 2622.800049 246.929169 C 2620.414551 249.150757 2620.25 250.878662 2621.895264 255.568695 C 2622.553223 257.378876 2623.293457 259.84729 2623.540283 260.999237 C 2624.280762 264.619598 2630.614502 273.259125 2634.233643 275.563019 L 2637.606201 277.784607 L 2657.759277 278.196014 C 2685.644287 278.771973 2684.904053 278.196014 2684.904053 297.120667 C 2684.904053 307.899506 2684.739502 309.46283 2683.094482 312.754089 C 2681.696045 315.46936 2680.215332 316.950409 2677.500977 318.266907 L 2673.881592 320.159393 L 2581.753906 320.159393 C 2504.514404 320.159393 2489.050293 319.994843 2485.513184 319.007446 C 2483.209961 318.349213 2477.781006 317.197266 2473.503418 316.374451 C 2461.411865 314.152863 2452.528076 308.969147 2441.341064 297.367523 C 2430.647705 286.341858 2426.123535 277.784607 2425.383057 267.005768 C 2424.642822 257.214294 2425.876709 250.714111 2429.907471 242.239136 C 2435.583008 230.472931 2441.094238 223.067627 2448.003906 217.801636 C 2457.874756 210.231781 2463.797363 207.51651 2478.438965 203.978394 C 2480.98877 203.32016 2517.675537 202.908752 2594.83252 202.57962 L 2707.524658 202.085938 L 2710.568359 200.193451 C 2714.598877 197.642761 2715.668213 193.857788 2714.927979 184.88916 C 2714.269775 177.483887 2712.54248 173.369812 2709.005371 170.819092 C 2706.702148 169.173462 2705.303711 169.173462 2595.655273 169.091187 C 2534.620361 169.091187 2479.837402 169.255737 2473.914795 169.502563 Z"/>
        <path id="path9" fill="#000000" stroke="none" d="M 2753.506348 169.502563 C 2751.696777 169.831726 2749.311279 170.901367 2748.159668 171.971008 L 2746.185547 173.781189 L 2746.185547 257.872559 L 2746.185547 341.963898 L 2748.406494 346.736206 C 2751.038574 352.413605 2753.753174 353.894653 2761.485352 353.894653 C 2768.723877 353.894653 2772.590088 352.49588 2774.564209 349.286926 C 2776.209229 346.736206 2776.209229 345.419708 2775.962646 263.714508 C 2775.71582 175.015442 2775.71582 175.838257 2771.685303 171.477356 C 2770.369141 170.078552 2768.806152 169.667175 2763.459473 169.338013 C 2759.840088 169.091187 2755.398193 169.173462 2753.506348 169.502563 Z"/>
        <path id="path10" fill="#000000" stroke="none" d="M 2873.272461 169.502563 C 2870.804932 169.831726 2867.926025 170.48999 2866.938721 171.065979 C 2865.95166 171.641907 2864.306641 172.053284 2863.237305 172.053284 C 2862.167725 172.053284 2860.60498 172.629272 2859.782471 173.287537 C 2858.877686 173.94574 2857.643799 174.521729 2857.067871 174.521729 C 2853.448486 174.521729 2832.55542 186.617065 2826.468262 192.212219 C 2820.052246 198.136444 2810.428223 211.548279 2805.904053 221.01062 C 2798.747803 235.903503 2798.418701 237.549103 2798.418701 256.802917 C 2798.418701 273.917389 2798.336426 273.588257 2802.366943 287.246918 C 2804.505859 294.652222 2811.250732 308.393188 2815.610352 314.317413 C 2824.494141 326.330475 2838.395752 337.932098 2850.651855 343.527252 C 2852.46167 344.432343 2854.600342 345.419708 2855.340576 345.74884 C 2858.137207 347.147614 2866.363037 349.616058 2872.861328 351.014832 C 2876.480713 351.837646 2880.51123 352.825012 2881.827393 353.154144 C 2883.143311 353.565552 2934.718506 353.894653 2996.411377 353.894653 C 3116.342041 353.894653 3111.735596 354.059204 3115.437256 349.94516 C 3116.671143 348.546387 3116.917725 346.900757 3116.917725 340.153717 C 3116.917725 330.362244 3115.108154 324.849426 3110.995361 322.05188 L 3108.280762 320.159393 L 3001.51123 320.159393 C 2926.328369 320.159393 2894.083496 319.912537 2892.438477 319.254303 C 2891.20459 318.76062 2887.914307 318.020081 2885.199951 317.608673 C 2868.583984 315.140228 2862.167725 312.91864 2852.296875 306.583008 C 2846.703613 302.962616 2843.495605 299.589081 2838.06665 291.360992 C 2830.828125 280.582153 2830.992432 280.911285 2828.936035 269.556488 C 2828.03125 264.701904 2829.84082 248.657074 2831.979492 242.815094 C 2837.408447 227.675385 2853.777588 211.630554 2868.995117 206.364532 C 2871.545166 205.541748 2875.164307 204.389832 2876.974121 203.896118 C 2879.195068 203.32016 2917.033203 202.826447 2995.424072 202.57962 C 3087.058594 202.168213 3110.995361 201.839081 3112.47583 201.016296 C 3116.095215 198.959229 3117 196.326233 3117 188.591797 C 3116.917725 180.199158 3115.272705 174.028076 3112.146973 171.148193 L 3110.008301 169.173462 L 2993.943604 169.091187 C 2930.029785 169.008911 2875.740234 169.255737 2873.272461 169.502563 Z"/>
    </g>
    <g id="Automation-Kopie">
        <path id="path11" fill="#000000" stroke="none" d="M 1794.6427 416.176819 C 1794.271729 417.289948 1793.900757 420.629395 1793.900757 423.597778 C 1793.900757 426.68985 1793.035278 431.142456 1792.046143 433.616119 C 1791.057007 435.966095 1790.191406 440.047638 1790.191406 442.644989 C 1790.191406 445.24234 1789.325928 449.694916 1788.33667 452.539642 C 1787.347534 455.384338 1786.482056 459.465881 1786.482056 461.444824 C 1786.482056 463.423767 1785.740112 468.494751 1784.750977 472.699982 C 1783.761719 476.905212 1782.154419 484.573547 1781.041504 489.644592 C 1780.052368 494.715576 1778.444946 503.126038 1777.332153 508.197021 C 1774.11731 524.399536 1774.11731 525.141602 1776.095703 526.873169 C 1777.332153 527.862671 1777.703125 529.594238 1777.084839 532.315247 C 1776.466553 535.778381 1776.713867 536.39679 1779.310547 537.015198 C 1784.13269 538.375732 1791.180542 538.004639 1792.293457 536.273071 C 1792.788086 535.531006 1793.529907 531.944214 1794.024414 528.604736 C 1794.519043 525.141602 1795.508179 519.081177 1796.250122 514.999634 C 1797.115601 510.91806 1798.352173 504.486542 1799.093994 500.776062 C 1799.71228 497.065552 1800.825073 490.139282 1801.443237 485.439331 C 1801.937866 480.863068 1802.556152 476.781525 1802.803345 476.657837 C 1804.039917 475.297333 1807.749268 480.492004 1811.705933 488.778809 C 1814.178955 494.097168 1816.157227 498.673431 1816.157227 498.920807 C 1816.157227 499.29187 1817.764648 503.00235 1819.743042 507.207581 C 1829.140137 527.862671 1830.747559 531.325806 1831.48938 533.923096 C 1831.984009 535.407349 1833.344116 537.138916 1834.580688 537.757324 C 1836.311646 538.746765 1837.177124 537.880981 1839.526489 532.562622 C 1841.133911 528.97583 1842.86499 525.26532 1843.483154 524.275818 C 1844.10144 523.286377 1844.966919 521.55481 1845.337891 520.565369 C 1845.83252 519.575867 1847.687134 515.246948 1849.665527 510.91806 C 1851.643921 506.71283 1853.251343 502.878662 1853.251343 502.507629 C 1853.251343 502.136566 1856.21875 495.952393 1859.680908 488.65509 C 1865.739624 476.410461 1866.234253 475.792053 1866.976074 479.1315 C 1870.190918 492.736633 1871.79834 501.023438 1871.79834 504.362854 C 1871.79834 506.465454 1872.663818 511.412781 1873.652954 515.370667 C 1874.642212 519.204834 1875.755005 525.017944 1876.125854 528.233704 C 1876.620483 531.449463 1877.733398 535.036255 1878.722534 536.025757 C 1880.824463 538.004639 1892.200073 538.623047 1893.312744 536.767822 C 1894.054688 535.531006 1891.210815 515.494324 1888.490601 503.126038 C 1887.501465 498.549744 1886.635864 493.231384 1886.635864 491.376129 C 1886.635864 489.397217 1885.770386 485.068298 1884.78125 481.728851 C 1883.792114 478.389404 1882.926514 473.31842 1882.926514 470.597351 C 1882.926514 467.752655 1882.060913 463.300079 1881.071777 460.579041 C 1880.082642 457.858032 1879.340698 453.034363 1879.217163 449.818604 C 1879.217163 446.602844 1878.598877 442.521301 1877.856934 440.542358 C 1877.115112 438.687134 1876.002319 433.245056 1875.50769 428.668793 C 1874.889526 423.474121 1873.652954 419.392548 1872.292847 417.784698 C 1870.190918 415.434692 1870.067261 415.55838 1865.368652 425.329346 C 1862.772095 430.895111 1860.670044 435.595062 1860.670044 435.966095 C 1860.670044 436.21347 1858.073486 441.902893 1854.982422 448.581787 C 1851.891113 455.136963 1848.429077 462.557983 1847.439819 464.907959 C 1846.327026 467.257935 1844.966919 470.102661 1844.348755 471.092102 C 1843.854126 472.081573 1842.988647 473.81311 1842.617676 474.802612 C 1842.246704 475.792053 1841.133911 478.142029 1840.144775 479.997284 C 1839.15564 481.728851 1838.413696 483.831482 1838.413696 484.573547 C 1838.413696 485.439331 1837.177124 487.665649 1835.693481 489.644592 C 1833.096924 493.231384 1830.994873 493.47876 1830.994873 490.139282 C 1830.994873 489.273499 1829.263794 484.697266 1827.161865 480.120972 C 1825.18335 475.421021 1822.586914 469.731567 1821.473999 467.381592 C 1820.484863 465.031616 1819.124756 462.18692 1818.630127 461.073761 C 1818.011963 459.960632 1815.291748 453.529114 1812.447876 446.85022 C 1809.604004 440.171326 1806.760132 434.11084 1806.141846 433.368744 C 1805.52356 432.750336 1805.029053 431.266144 1805.029053 430.152985 C 1805.029053 429.039856 1804.163452 427.431976 1803.174316 426.566193 C 1802.185181 425.700409 1801.31958 423.845154 1801.31958 422.360962 C 1801.31958 421.000458 1799.959473 418.526764 1798.352173 416.918915 C 1795.87915 414.568909 1795.260986 414.445251 1794.6427 416.176819 Z"/>
        <path id="path12" fill="#000000" stroke="none" d="M 2614.544678 415.929443 C 2612.937256 420.134674 2613.55542 523.781128 2615.163086 530.088928 C 2617.017578 537.262573 2617.759277 537.880981 2624.560059 537.880981 C 2629.13501 537.880981 2630.000488 537.38623 2630.989746 534.665222 C 2631.731445 532.933655 2632.226074 516.978516 2632.226074 498.426086 C 2632.226074 480.244659 2632.596924 464.907959 2633.091797 464.536896 C 2633.957275 463.671112 2636.924805 466.639526 2667.465576 498.920807 C 2704.93042 538.49939 2708.763672 542.2099 2709.505371 540.1073 C 2710 538.994141 2710.123535 511.907532 2709.876465 479.873596 C 2709.505371 429.658264 2709.258057 421.37149 2707.650635 420.382019 C 2706.661377 419.639923 2702.704834 419.26889 2698.995361 419.392548 L 2692.194824 419.763611 L 2691.57666 455.631714 C 2691.205811 475.297333 2690.711182 491.623505 2690.587402 491.623505 C 2690.463867 491.747192 2684.405029 485.686707 2677.109863 478.018372 C 2669.690918 470.473694 2657.821045 458.105377 2650.525879 450.684387 C 2643.354248 443.139709 2632.473389 431.884552 2626.414795 425.453033 C 2617.512207 416.053131 2615.163086 414.197876 2614.544678 415.929443 Z"/>
        <path id="path13" fill="#000000" stroke="none" d="M 1126.702637 418.403107 C 1126.20813 419.763611 1123.364258 426.318817 1120.396606 432.750336 C 1117.305542 439.181854 1113.967041 446.479156 1112.977783 448.829132 C 1111.86499 451.179138 1110.504883 454.023834 1109.886719 455.013306 C 1109.39209 456.002747 1108.526611 457.734314 1108.15564 458.723816 C 1107.661011 459.713257 1105.55896 464.413208 1103.333496 469.236877 C 1101.107788 473.936829 1097.521973 481.728851 1095.296387 486.55249 C 1093.070801 491.252441 1089.114014 499.662903 1086.517456 505.228638 C 1083.797241 510.670715 1081.69519 515.741699 1081.69519 516.483826 C 1081.69519 517.225891 1080.829712 518.462769 1079.840576 519.328491 C 1078.851318 520.194336 1077.98584 522.173218 1077.98584 523.65741 C 1077.98584 525.26532 1078.851318 526.749512 1079.840576 527.244263 C 1082.066162 527.986328 1082.313477 533.675781 1080.211548 534.912598 C 1077.98584 536.273071 1082.560791 537.633606 1089.361328 537.757324 L 1095.296387 537.880981 L 1099.624023 529.099487 C 1101.973389 524.275818 1103.95166 519.699585 1103.95166 518.833801 C 1104.075317 518.091675 1105.064453 516.23645 1106.300903 514.62854 C 1108.650269 512.031189 1109.39209 511.907532 1131.64856 511.907532 C 1152.544922 511.907532 1154.770508 512.154907 1155.388794 514.010132 C 1155.883301 515.246948 1158.109009 520.194336 1160.334595 525.017944 C 1162.68396 529.841553 1164.538574 534.417847 1164.538574 535.159973 C 1164.538574 536.891541 1171.339111 538.252014 1177.026978 537.633606 C 1180.365356 537.38623 1181.107178 536.767822 1180.859985 534.78894 C 1180.736328 533.428406 1180.365356 530.336304 1180.118042 527.986328 C 1179.623535 523.286377 1178.510742 520.194336 1173.935791 510.299652 C 1172.204712 506.71283 1169.484375 500.528687 1167.629761 496.447144 C 1165.775024 492.365601 1163.302124 486.799866 1161.942017 483.955139 C 1160.705444 481.234131 1159.592773 478.389404 1159.592773 477.647308 C 1159.592773 476.905212 1158.727173 475.668396 1157.738037 474.802612 C 1156.748901 473.936829 1155.883301 472.328918 1155.883301 471.21579 C 1155.883301 470.226318 1154.152222 465.650024 1152.050293 461.197449 C 1149.948242 456.744873 1147.475342 451.426483 1146.609863 449.447571 C 1145.002441 445.737061 1140.180176 435.100311 1134.739624 423.226746 C 1131.524902 416.176819 1128.062744 414.074188 1126.702637 418.403107 Z M 1141.66394 484.573547 C 1140.79834 486.181458 1123.858765 486.428802 1121.509521 484.820923 C 1120.273071 484.078827 1120.149414 483.213043 1121.014893 481.481476 C 1121.756714 480.120972 1123.61145 476.286804 1125.095337 472.947357 C 1126.579102 469.484222 1128.68103 465.402679 1129.793823 463.7948 C 1131.64856 460.826416 1131.772217 460.950073 1137.088989 472.081573 C 1140.056519 478.265717 1142.158447 483.831482 1141.66394 484.573547 Z"/>
        <path id="path14" fill="#000000" stroke="none" d="M 2027.593262 416.300476 C 2025.738525 416.795197 2024.37854 419.26889 2016.465088 437.079254 C 2014.363159 441.779205 2012.137329 446.602844 2011.39563 447.592316 C 2010.777344 448.581787 2009.911743 450.313354 2009.540894 451.302795 C 2008.180664 454.642242 2003.853027 464.165833 1998.907227 474.802612 C 1992.97229 487.294586 1988.520874 497.065552 1983.080444 508.81543 C 1980.978516 513.515381 1978.258301 519.081177 1977.269043 521.060059 C 1975.414429 524.399536 1975.414429 524.770569 1977.639893 526.625854 C 1979.618286 528.233704 1979.865723 529.47052 1979.247437 532.686279 C 1978.505493 536.149414 1978.876343 536.767822 1981.225708 537.38623 C 1982.709595 537.757324 1986.047852 537.880981 1988.644531 537.633606 C 1993.713989 537.262573 1993.961426 536.891541 2003.976807 515.865356 L 2005.9552 511.907532 L 2029.077148 511.907532 L 2052.198975 511.907532 L 2056.526611 520.936401 C 2058.999512 525.883728 2060.978027 530.707397 2060.978027 531.449463 C 2060.978027 535.036255 2065.923828 537.880981 2072.106201 537.880981 C 2079.030273 537.880981 2080.390381 536.520447 2078.412109 531.449463 C 2077.793945 529.841553 2077.670166 527.738953 2078.165039 526.873169 C 2078.782959 526.007385 2078.165039 523.286377 2076.928223 520.812744 C 2073.713623 514.257507 2065.305664 495.58136 2059.123291 481.605164 C 2058.257568 479.502563 2055.661133 473.936829 2053.559082 469.236877 C 2051.457275 464.413208 2048.860596 458.847473 2047.994995 456.86853 C 2043.172852 445.737061 2034.888428 427.679321 2030.684326 418.403107 C 2029.942627 417.042572 2028.582397 416.053131 2027.593262 416.300476 Z M 2036.619507 474.802612 C 2039.710693 481.357788 2040.576172 484.326202 2039.587036 484.944611 C 2037.608765 486.181458 2021.163574 486.181458 2019.30896 484.944611 C 2018.319824 484.326202 2019.556152 480.615723 2023.38916 472.452637 C 2029.69519 459.094849 2029.200684 458.971161 2036.619507 474.802612 Z"/>
        <path id="path15" fill="#000000" stroke="none" d="M 1615.231201 418.650452 C 1603.237427 420.629395 1583.577515 435.842407 1578.013428 447.592316 C 1570.965576 462.557983 1569.97644 473.31842 1574.304077 491.994568 C 1577.395264 505.476013 1581.846558 513.762756 1590.501831 522.420593 C 1601.011841 532.933655 1611.150879 537.757324 1624.751953 538.746765 C 1639.094971 539.736206 1648.739502 537.633606 1660.238647 531.07843 C 1665.060791 528.357422 1676.436401 516.483826 1679.280273 511.289124 C 1686.45166 497.931335 1688.182861 482.223572 1684.349731 464.784241 C 1682.000488 453.776459 1679.280273 447.716003 1673.097778 439.676605 C 1668.275635 433.245056 1656.034668 422.97937 1653.190796 422.855682 C 1652.325317 422.855682 1650.223267 421.989899 1648.615845 420.87677 C 1645.401001 418.774139 1623.515625 417.413635 1615.231201 418.650452 Z M 1640.207886 444.129181 C 1648.492188 446.231781 1657.889404 452.66333 1662.958862 459.5896 C 1666.668335 464.784241 1667.162842 466.639526 1667.533691 474.431549 C 1668.028442 482.099915 1667.533691 484.326202 1664.689819 490.263 C 1659.620361 501.147095 1648.863037 510.546997 1639.342407 512.402283 C 1626.235718 514.999634 1622.650024 514.752258 1610.65625 509.681213 C 1604.35022 507.207581 1594.582153 496.570831 1591.738281 489.273499 C 1587.905273 479.1315 1591.614624 466.021088 1601.135376 455.631714 C 1611.150879 444.74762 1625.741089 440.418701 1640.207886 444.129181 Z"/>
        <path id="path16" fill="#000000" stroke="none" d="M 2450.465332 419.021515 C 2446.013916 420.134674 2439.460693 422.855682 2435.009521 425.700409 C 2428.579834 429.658264 2417.080811 443.016052 2413.247803 450.931763 C 2409.53833 458.847473 2409.291016 460.08429 2409.291016 472.947357 C 2409.291016 504.486542 2422.644775 526.625854 2447.497803 536.149414 C 2452.196533 538.004639 2456.647705 538.49939 2467.775879 538.375732 C 2481.253418 538.375732 2482.366211 538.128357 2490.40332 534.294189 C 2513.401611 523.16272 2526.384521 499.415527 2522.427979 475.915741 C 2521.562256 471.21579 2520.944092 465.526367 2520.944092 463.300079 C 2520.944092 461.073761 2520.078369 458.105377 2519.089355 456.744873 C 2518.100098 455.508026 2517.234619 453.158051 2517.234619 451.797546 C 2517.234619 450.313354 2516.369141 448.458099 2515.379883 447.592316 C 2514.390869 446.726532 2513.525146 445.365997 2513.525146 444.623901 C 2513.525146 441.408142 2497.203857 426.813538 2489.414063 422.855682 C 2482.118896 419.26889 2480.140625 418.774139 2468.023193 418.403107 C 2460.728027 418.155731 2452.814697 418.526764 2450.465332 419.021515 Z M 2477.79126 444.376556 C 2486.322998 446.973907 2490.032471 449.200195 2495.84375 455.260681 C 2505.117188 464.907959 2507.095459 474.92627 2502.273438 488.036682 C 2499.553223 495.086609 2490.526855 506.218109 2485.70459 508.32074 C 2484.344727 508.939148 2482.366211 509.928589 2481.376953 510.546997 C 2478.904297 512.031189 2468.517578 514.381226 2464.68457 514.381226 C 2458.625977 514.381226 2447.745117 510.670715 2442.304688 506.71283 C 2439.213623 504.486542 2434.762207 500.033936 2432.289063 496.570831 C 2428.208984 490.757721 2427.96167 490.015625 2427.96167 480.492004 C 2427.96167 468.865784 2430.063721 463.918488 2438.224365 455.384338 C 2448.734375 444.252869 2463.819092 440.171326 2477.79126 444.376556 Z"/>
        <path id="path17" fill="#000000" stroke="none" d="M 1262.714111 420.87677 C 1262.343262 421.989899 1262.219482 440.171326 1262.466919 461.444824 C 1262.961426 497.436615 1263.20874 500.776062 1265.681641 508.81543 C 1272.605957 530.336304 1287.567139 540.602051 1309.328979 538.746765 C 1321.075439 537.757324 1331.09082 531.944214 1337.396729 522.544312 C 1343.950195 512.896973 1345.310303 502.136566 1344.692017 462.805328 C 1344.444702 445.24234 1343.702759 428.421417 1343.084595 425.329346 L 1341.97168 419.763611 L 1334.552856 419.763611 L 1327.134155 419.763611 L 1326.763306 456.992249 L 1326.515869 494.097168 L 1323.053833 500.776062 C 1319.220703 508.444397 1315.758667 511.289124 1307.845215 513.268066 C 1298.942749 515.618042 1290.781982 512.649658 1283.857788 504.610229 C 1281.508423 502.012878 1281.384888 499.29187 1280.642944 466.268463 C 1280.148315 446.85022 1279.282837 428.421417 1278.788208 425.329346 L 1277.675415 419.763611 L 1270.503906 419.392548 C 1265.063354 419.145203 1263.20874 419.516235 1262.714111 420.87677 Z"/>
        <path id="path18" fill="#000000" stroke="none" d="M 1430.008301 420.010986 C 1428.648193 421.247803 1429.019043 433.739807 1430.379272 434.605591 C 1431.121094 434.976624 1431.615723 437.32663 1431.615723 439.552917 C 1431.615723 444.500244 1432.604858 444.871277 1444.598633 445.365997 L 1452.017456 445.737061 L 1452.388306 485.191956 C 1452.63562 517.102234 1453.006592 525.141602 1454.366699 526.625854 C 1455.355835 527.738953 1456.345093 530.583679 1456.592407 532.933655 L 1456.963257 537.262573 L 1463.763794 537.262573 L 1470.564453 537.262573 L 1471.306274 491.499817 C 1471.677246 466.268463 1472.048218 445.613403 1472.171875 445.489685 C 1472.29541 445.365997 1477.859497 444.994965 1484.536499 444.871277 L 1496.530273 444.500244 L 1496.282959 437.697662 C 1496.282959 433.987183 1495.664795 428.421417 1495.046387 425.329346 L 1494.057251 419.763611 L 1462.403687 419.392548 C 1445.093262 419.26889 1430.502808 419.516235 1430.008301 420.010986 Z"/>
        <path id="path19" fill="#000000" stroke="none" d="M 2147.159668 420.010986 C 2145.552246 421.618866 2146.294189 432.379272 2148.025391 433.987183 C 2149.014404 434.729279 2150.003662 437.450287 2150.250732 439.92395 L 2150.621826 444.500244 L 2160.513428 444.871277 C 2166.44873 445.118652 2170.652588 445.860748 2171.270996 446.726532 C 2171.765381 447.592316 2172.26001 465.650024 2172.26001 486.923523 C 2172.26001 508.197021 2172.754639 526.502136 2173.372803 527.738953 C 2173.991211 528.852112 2174.980225 531.449463 2175.598633 533.552063 C 2176.587646 537.138916 2176.958496 537.262573 2183.388184 537.262573 L 2190.188721 537.262573 L 2190.807129 491.499817 L 2191.425293 445.737061 L 2200.698975 445.365997 C 2215.289063 444.871277 2215.536377 444.871277 2215.536377 437.945038 C 2215.536377 434.729279 2215.041748 431.513489 2214.423584 430.895111 C 2213.80542 430.152985 2213.063477 427.431976 2212.816162 424.710938 L 2212.445068 419.763611 L 2180.173584 419.392548 C 2162.491943 419.26889 2147.654297 419.516235 2147.159668 420.010986 Z"/>
        <path id="path20" fill="#000000" stroke="none" d="M 2299.245361 420.010986 C 2298.750732 420.382019 2298.379883 444.252869 2298.379883 472.947357 C 2298.379883 516.978516 2298.626953 525.388977 2300.11084 526.749512 C 2301.100098 527.491577 2302.089111 530.212646 2302.336426 532.686279 L 2302.70752 537.262573 L 2309.508057 537.262573 L 2316.308594 537.262573 L 2316.679443 480.986755 C 2316.803223 450.065979 2316.679443 423.474121 2316.308594 421.866211 C 2315.69043 419.392548 2314.948486 419.145203 2307.776855 419.145203 C 2303.572998 419.145203 2299.616211 419.516235 2299.245361 420.010986 Z"/>
    </g>
</svg>
